<svg xmlns="http://www.w3.org/2000/svg" width="1680" height="1230" viewBox="0 0 1680 1230" role="img" aria-label="Common entrance and program relationships"><title>Common entrance and program relationships</title><desc>Proposed bubble relationships, not measured plans. South pedestrian entrance and east ramp to underground parking are constant. Every option pairs a ground diagram with above-ground and B1 sectional relationships.</desc><defs><marker id="arr-917342" viewBox="0 0 10 10" refX="8" refY="5" markerWidth="6" markerHeight="6" orient="auto-start-reverse"><path d="M1,1 L9,5 L1,9" fill="none" stroke="#917342" stroke-width="1.6"/></marker><marker id="arr-ac5362" viewBox="0 0 10 10" refX="8" refY="5" markerWidth="6" markerHeight="6" orient="auto-start-reverse"><path d="M1,1 L9,5 L1,9" fill="none" stroke="#ac5362" stroke-width="1.6"/></marker><marker id="arr-347e8c" viewBox="0 0 10 10" refX="8" refY="5" markerWidth="6" markerHeight="6" orient="auto-start-reverse"><path d="M1,1 L9,5 L1,9" fill="none" stroke="#347e8c" stroke-width="1.6"/></marker><marker id="arr-67746e" viewBox="0 0 10 10" refX="8" refY="5" markerWidth="6" markerHeight="6" orient="auto-start-reverse"><path d="M1,1 L9,5 L1,9" fill="none" stroke="#67746e" stroke-width="1.6"/></marker><pattern id="road-hatch" width="12" height="12" patternUnits="userSpaceOnUse" patternTransform="rotate(30)"><line x1="0" y1="0" x2="0" y2="12" stroke="#acaaa1" stroke-width="1"/></pattern></defs><rect x="0" y="0" width="1680" height="1230" fill="#fcfbf7" stroke="none" rx="0"/><g font-family="Arial, Helvetica, sans-serif"><text x="48" y="40" font-size="13" fill="#67746e" text-anchor="start" font-weight="650">ENTERING BEIRUT / COMMON BRIEF</text><text x="48" y="105" font-size="39" fill="#233b38" text-anchor="start" font-weight="600">Two arrivals. One welcome. Several connected layers.</text><text x="48" y="147" font-size="20" fill="#67746e" text-anchor="start" font-weight="400">The entrances are the fixed starting point; the three options test what happens after arrival.</text><g data-bubble="SOUTH / ON FOOT C1 stairs → main door" data-program="public"><ellipse cx="278" cy="319" rx="170" ry="66" fill="#e8c990" fill-opacity="0.8" stroke="#233b38" stroke-opacity=".6" stroke-width="1.4" /><text x="278" y="314" font-size="17" fill="#233b38" text-anchor="middle" font-weight="550">SOUTH / ON FOOT</text><text x="278" y="335" font-size="17" fill="#233b38" text-anchor="middle" font-weight="550">C1 stairs → main door</text></g><g data-bubble="EAST / STREET 80 Ramp → B1 → lift / stairs" data-program="support"><ellipse cx="1205" cy="319" rx="192" ry="66" fill="#d2d0c8" fill-opacity="0.8" stroke="#233b38" stroke-opacity=".6" stroke-width="1.4" /><text x="1205" y="314" font-size="17" fill="#233b38" text-anchor="middle" font-weight="550">EAST / STREET 80</text><text x="1205" y="335" font-size="17" fill="#233b38" text-anchor="middle" font-weight="550">Ramp → B1 → lift / stairs</text></g><path d="M449 318 L620 318" fill="none" stroke="#ac5362" stroke-width="4" stroke-linecap="round" stroke-linejoin="round"  marker-end="url(#arr-ac5362)"/><path d="M1013 318 L857 318" fill="none" stroke="#347e8c" stroke-width="4" stroke-linecap="round" stroke-linejoin="round" stroke-dasharray="6 5" marker-end="url(#arr-347e8c)"/><ellipse cx="738" cy="318" rx="119" ry="72" fill="#f8efd9" stroke="#917342" stroke-width="2"/><text x="738" y="318" font-size="18" fill="#233b38" text-anchor="middle" font-weight="600">Shared welcome</text><text x="738" y="349" font-size="12" fill="#67746e" text-anchor="middle" font-weight="400">same public address</text><text x="1155" y="417" font-size="15" fill="#347e8c" text-anchor="middle" font-weight="400">A separate east walk-in door also joins the welcome.</text><path d="M738 391 L738 470" fill="none" stroke="#917342" stroke-width="3" stroke-linecap="round" stroke-linejoin="round"  marker-end="url(#arr-917342)"/><ellipse cx="738" cy="613" rx="390" ry="137" fill="#f7eddb" stroke="#917342" stroke-width="1.5"/><text x="738" y="510" font-size="17" fill="#917342" text-anchor="middle" font-weight="600">SHARED LAYER / encounter, display, exchange</text><g data-bubble="Exhibition / cultural activity" data-program="culture"><ellipse cx="529" cy="612" rx="126" ry="61" fill="#d6a297" fill-opacity="0.8" stroke="#233b38" stroke-opacity=".6" stroke-width="1.4" /><text x="529" y="607" font-size="17" fill="#233b38" text-anchor="middle" font-weight="550">Exhibition /</text><text x="529" y="628" font-size="17" fill="#233b38" text-anchor="middle" font-weight="550">cultural activity</text></g><g data-bubble="Learning / workshop" data-program="learn"><ellipse cx="789" cy="612" rx="123" ry="61" fill="#a6c2b6" fill-opacity="0.8" stroke="#233b38" stroke-opacity=".6" stroke-width="1.4" /><text x="789" y="607" font-size="17" fill="#233b38" text-anchor="middle" font-weight="550">Learning /</text><text x="789" y="628" font-size="17" fill="#233b38" text-anchor="middle" font-weight="550">workshop</text></g><path d="M657 612 L666 612" fill="none" stroke="#67746e" stroke-width="2" stroke-linecap="round" stroke-linejoin="round"  /><g data-bubble="Cafe / retail" data-program="public"><ellipse cx="1008" cy="609" rx="83" ry="58" fill="#e8c990" fill-opacity="0.8" stroke="#233b38" stroke-opacity=".6" stroke-width="1.4" /><text x="1008" y="604" font-size="17" fill="#233b38" text-anchor="middle" font-weight="550">Cafe /</text><text x="1008" y="625" font-size="17" fill="#233b38" text-anchor="middle" font-weight="550">retail</text></g><path d="M704 750 L704 790" fill="none" stroke="#917342" stroke-width="3" stroke-linecap="round" stroke-linejoin="round"  marker-end="url(#arr-917342)"/><ellipse cx="583" cy="880" rx="240" ry="81" fill="#adb9cd" fill-opacity=".55" stroke="#233b38" stroke-opacity=".5"/><text x="492" y="861" font-size="18" fill="#233b38" text-anchor="middle" font-weight="600">FOCUSED WORK LAYER</text><text x="492" y="891" font-size="17" fill="#233b38" text-anchor="middle" font-weight="400">Co-working + offices</text><g data-bubble="Meetings" data-program="work"><ellipse cx="699" cy="877" rx="88" ry="44" fill="#adb9cd" fill-opacity="0.8" stroke="#233b38" stroke-opacity=".6" stroke-width="1.4" /><text x="699" y="882" font-size="17" fill="#233b38" text-anchor="middle" font-weight="550">Meetings</text></g><g data-bubble="Productive growing + technical support" data-program="grow"><ellipse cx="1008" cy="877" rx="127" ry="65" fill="#becb95" fill-opacity="0.8" stroke="#233b38" stroke-opacity=".6" stroke-width="1.4" /><text x="1008" y="872" font-size="17" fill="#233b38" text-anchor="middle" font-weight="550">Productive growing</text><text x="1008" y="893" font-size="17" fill="#233b38" text-anchor="middle" font-weight="550">+ technical support</text></g><path d="M839 727 Q971 749 997 810" fill="none" stroke="#917342" stroke-width="2" stroke-linecap="round" stroke-linejoin="round"  marker-end="url(#arr-917342)"/><text x="579" y="994" font-size="18" fill="#233b38" text-anchor="middle" font-weight="400">NESTING: smaller rooms sit within broader shared settings,</text><text x="579" y="1022" font-size="18" fill="#233b38" text-anchor="middle" font-weight="400">connected by clear thresholds in plan and section.</text><rect x="1292" y="483" width="300" height="217" fill="#f5f4ee" stroke="none" rx="0"/><text x="1304" y="503" font-size="11" fill="#67746e" text-anchor="start" font-weight="650">SITE ANCHOR / EXISTING TRACES</text><polygon points="1398.7,613.4 1427.0,622.0 1442.9,607.8 1453.2,563.7 1452.8,562.4 1451.8,558.9 1417.3,545.5" fill="#efe0b9" stroke="#233b38" stroke-width="1.5"/><polyline points="1466.8,550.2 1463.1,560.6" fill="none" stroke="#347e8c" stroke-width="2"/><polyline points="1463.1,560.6 1460.9,565.9" fill="none" stroke="#347e8c" stroke-width="2"/><polyline points="1460.9,565.9 1442.1,610.9" fill="none" stroke="#347e8c" stroke-width="2"/><polyline points="1442.1,610.9 1440.1,614.6" fill="none" stroke="#347e8c" stroke-width="2"/><polyline points="1440.1,614.6 1437.1,617.7" fill="none" stroke="#347e8c" stroke-width="2"/><polyline points="1437.1,617.7 1432.5,619.3" fill="none" stroke="#347e8c" stroke-width="2"/><polyline points="1432.5,619.3 1427.0,619.2" fill="none" stroke="#347e8c" stroke-width="2"/><polyline points="1427.0,619.2 1409.6,616.2" fill="none" stroke="#347e8c" stroke-width="2"/><polyline points="1409.6,616.2 1402.4,616.2" fill="none" stroke="#347e8c" stroke-width="2"/><polyline points="1402.4,616.2 1378.5,619.8" fill="none" stroke="#347e8c" stroke-width="2"/><polyline points="1394.1,680.3 1416.7,606.1" fill="none" stroke="#ac5362" stroke-width="2"/><polyline points="1394.1,680.3 1389.0,675.8" fill="none" stroke="#ac5362" stroke-width="3"/><polyline points="1389.0,675.8 1388.1,678.4" fill="none" stroke="#ac5362" stroke-width="3"/><polyline points="1388.1,678.4 1394.1,680.3" fill="none" stroke="#ac5362" stroke-width="3"/><polyline points="1416.7,606.1 1410.6,604.4" fill="none" stroke="#ac5362" stroke-width="3"/><polyline points="1410.6,604.4 1411.8,600.2" fill="none" stroke="#ac5362" stroke-width="3"/><polyline points="1411.8,600.2 1418.5,602.0" fill="none" stroke="#ac5362" stroke-width="3"/><text x="1432" y="550" font-size="11" fill="#233b38" text-anchor="middle" font-weight="600">Plot</text><text x="1507" y="547" font-size="11" fill="#347e8c" text-anchor="start" font-weight="400">Street 80</text><text x="1507" y="562" font-size="11" fill="#347e8c" text-anchor="start" font-weight="400">east edge</text><text x="1307" y="641" font-size="11" fill="#ac5362" text-anchor="start" font-weight="400">C1 / stairs</text><text x="1307" y="656" font-size="11" fill="#ac5362" text-anchor="start" font-weight="400">southern approach</text><text x="1304" y="686" font-size="10" fill="#67746e" text-anchor="start" font-weight="400">Exact landing / kerb / door connection: VERIFY</text><text x="1300" y="745" font-size="15" fill="#67746e" text-anchor="start" font-weight="400">IN ALL OPTIONS</text><text x="1300" y="770" font-size="15" fill="#67746e" text-anchor="start" font-weight="400">B1 underground parking.</text><text x="1300" y="795" font-size="15" fill="#67746e" text-anchor="start" font-weight="400">Service has a separate</text><text x="1300" y="820" font-size="15" fill="#67746e" text-anchor="start" font-weight="400">route to test. Ground levels,</text><text x="1300" y="845" font-size="15" fill="#67746e" text-anchor="start" font-weight="400">ramp and basement rules:</text><text x="1300" y="870" font-size="15" fill="#67746e" text-anchor="start" font-weight="400">VERIFY. Capacity: TBD.</text><line x1="48" y1="1071" x2="1632" y2="1071" stroke="#d5d8ce" stroke-width="1" /><rect x="50" y="1095" width="18" height="18" fill="#e8c990" stroke="#d5d8ce" rx="9"/><text x="77" y="1108" font-size="14" fill="#233b38" text-anchor="start" font-weight="400">Public / commercial</text><rect x="297" y="1095" width="18" height="18" fill="#d6a297" stroke="#d5d8ce" rx="9"/><text x="324" y="1108" font-size="14" fill="#233b38" text-anchor="start" font-weight="400">Culture / exhibition</text><rect x="544" y="1095" width="18" height="18" fill="#a6c2b6" stroke="#d5d8ce" rx="9"/><text x="571" y="1108" font-size="14" fill="#233b38" text-anchor="start" font-weight="400">Learning / workshop</text><rect x="791" y="1095" width="18" height="18" fill="#adb9cd" stroke="#d5d8ce" rx="9"/><text x="818" y="1108" font-size="14" fill="#233b38" text-anchor="start" font-weight="400">Work / meetings</text><rect x="1038" y="1095" width="18" height="18" fill="#becb95" stroke="#d5d8ce" rx="9"/><text x="1065" y="1108" font-size="14" fill="#233b38" text-anchor="start" font-weight="400">Growing</text><rect x="1285" y="1095" width="18" height="18" fill="#d2d0c8" stroke="#d5d8ce" rx="9"/><text x="1312" y="1108" font-size="14" fill="#233b38" text-anchor="start" font-weight="400">Circulation / support</text><text x="50" y="1160" font-size="14" fill="#67746e" text-anchor="start" font-weight="400">Official brief: 1,500 m² total; 30% footprint; 4 floors / 17 m; 4 m setbacks. Area-counting and parking interpretation: VERIFY.</text><text x="50" y="1198" font-size="12" fill="#67746e" text-anchor="start" font-weight="400">PROGRAM RELATIONSHIPS / position and bubble sizes are schematic. Proposed entrances follow the student brief of 2026-09-17.</text></g></svg>