<svg xmlns="http://www.w3.org/2000/svg" width="1680" height="1230" viewBox="0 0 1680 1230" role="img" aria-label="Vertical commons: plan and section bubble study"><title>Vertical commons: plan and section bubble study</title><desc>Proposed bubble relationships, not measured plans. South pedestrian entrance and east ramp to underground parking are constant. Every option pairs a ground diagram with above-ground and B1 sectional relationships.</desc><defs><marker id="arr-917342" viewBox="0 0 10 10" refX="8" refY="5" markerWidth="6" markerHeight="6" orient="auto-start-reverse"><path d="M1,1 L9,5 L1,9" fill="none" stroke="#917342" stroke-width="1.6"/></marker><marker id="arr-ac5362" viewBox="0 0 10 10" refX="8" refY="5" markerWidth="6" markerHeight="6" orient="auto-start-reverse"><path d="M1,1 L9,5 L1,9" fill="none" stroke="#ac5362" stroke-width="1.6"/></marker><marker id="arr-347e8c" viewBox="0 0 10 10" refX="8" refY="5" markerWidth="6" markerHeight="6" orient="auto-start-reverse"><path d="M1,1 L9,5 L1,9" fill="none" stroke="#347e8c" stroke-width="1.6"/></marker><marker id="arr-67746e" viewBox="0 0 10 10" refX="8" refY="5" markerWidth="6" markerHeight="6" orient="auto-start-reverse"><path d="M1,1 L9,5 L1,9" fill="none" stroke="#67746e" stroke-width="1.6"/></marker><pattern id="road-hatch" width="12" height="12" patternUnits="userSpaceOnUse" patternTransform="rotate(30)"><line x1="0" y1="0" x2="0" y2="12" stroke="#acaaa1" stroke-width="1"/></pattern></defs><rect x="0" y="0" width="1680" height="1230" fill="#fcfbf7" stroke="none" rx="0"/><g font-family="Arial, Helvetica, sans-serif"><text x="48" y="40" font-size="13" fill="#67746e" text-anchor="start" font-weight="650">ENTERING BEIRUT / LAYERS → NESTING</text><text x="1632" y="40" font-size="12" fill="#67746e" text-anchor="end" font-weight="600">17 SEPTEMBER 2026 / COMPARISON STUDY C</text><text x="48" y="98" font-size="43" fill="#233b38" text-anchor="start" font-weight="600">03   Vertical commons</text><text x="49" y="137" font-size="21" fill="#67746e" text-anchor="start" font-weight="400">Nest shared places between the floors</text><line x1="48" y1="159" x2="1632" y2="159" stroke="#d5d8ce" stroke-width="1" /><g transform="translate(48 190)"><text x="0" y="10" font-size="14" fill="#67746e" text-anchor="start" font-weight="650">GROUND / RELATIONSHIP PLAN</text><text x="0" y="35" font-size="13" fill="#67746e" text-anchor="start" font-weight="400">N up · actual mapped plot outline; bubbles are not room footprints</text><polygon points="174.81,563.88 364.49,622.19 471.61,526.51 540.55,230.56 537.88,221.34 531.06,197.90 299.38,107.83" fill="#f4f3ea" stroke="#8b948b" stroke-width="1.6"/><defs><clipPath id="plot-c"><polygon points="174.81,563.88 364.49,622.19 471.61,526.51 540.55,230.56 537.88,221.34 531.06,197.90 299.38,107.83"/></clipPath></defs><g clip-path="url(#plot-c)"><path data-layer="arrival" d="M188 508 Q235 443 330 453 Q426 458 463 514 L427 566 Q363 612 277 589 L185 565 Z" fill="#b85e45" fill-opacity=".2" stroke="#b85e45" stroke-width="3.4" stroke-linejoin="round"/><path data-layer="shared" d="M239 319 Q260 227 374 222 Q467 228 502 322 Q519 420 435 478 Q336 512 262 449 Q218 395 239 319 Z" fill="#aa8326" fill-opacity=".2" stroke="#aa8326" stroke-width="3.4" stroke-linejoin="round"/><path data-layer="focused" d="M363 222 Q421 192 476 226 L490 293 Q428 326 379 308 Z" fill="#397b73" fill-opacity=".2" stroke="#397b73" stroke-width="3.4" stroke-linejoin="round"/></g><path d="M575 90 L575 530 Q575 585 530 609" fill="none" stroke="#d6dfdc" stroke-width="20" stroke-linecap="round" stroke-linejoin="round"  /><text x="606" y="215" font-size="16" fill="#347e8c" text-anchor="start" font-weight="600">STREET 80</text><text x="606" y="242" font-size="14" fill="#67746e" text-anchor="start" font-weight="400">Eastern road</text><text x="606" y="266" font-size="14" fill="#67746e" text-anchor="start" font-weight="400">approach</text><line x1="705" y1="95" x2="705" y2="56" stroke="#233b38" stroke-width="1.4" /><path d="M699 64 L705 54 L711 64" fill="none" stroke="#233b38" stroke-width="1.4" stroke-linecap="round" stroke-linejoin="round"  /><text x="705" y="42" font-size="13" fill="#233b38" text-anchor="middle" font-weight="600">N</text><rect x="140" y="652" width="445" height="32" fill="#eeece5" stroke="none" rx="0"/><rect x="140" y="652" width="445" height="32" fill="url(#road-hatch)" stroke="none" rx="0"/><text x="363" y="674" font-size="13" fill="#67746e" text-anchor="middle" font-weight="600">HIGHWAY / SOUTHERN EDGE</text><path d="M324 720 L324 590" fill="none" stroke="#ac5362" stroke-width="4" stroke-linecap="round" stroke-linejoin="round"  marker-end="url(#arr-ac5362)"/><text x="340" y="708" font-size="14" fill="#ac5362" text-anchor="start" font-weight="600">SOUTH / pedestrians</text><text x="340" y="728" font-size="14" fill="#ac5362" text-anchor="start" font-weight="600">After descending C1 stairs</text><text x="148" y="743" font-size="12" fill="#67746e" text-anchor="start" font-weight="400">C1 trace is on the common-brief locator; this approach is schematic.</text><path d="M574 282 L574 443 Q574 482 478 482" fill="none" stroke="#347e8c" stroke-width="3" stroke-linecap="round" stroke-linejoin="round"  marker-end="url(#arr-347e8c)"/><text x="606" y="487" font-size="14" fill="#347e8c" text-anchor="start" font-weight="600">EAST / vehicles</text><text x="606" y="508" font-size="14" fill="#347e8c" text-anchor="start" font-weight="600">Ramp down to B1</text><text x="606" y="529" font-size="14" fill="#347e8c" text-anchor="start" font-weight="600">Underground parking</text><path d="M575 128 L562 128 L491 207" fill="none" stroke="#67746e" stroke-width="1.8" stroke-linecap="round" stroke-linejoin="round" stroke-dasharray="3 5" marker-end="url(#arr-67746e)"/><text x="596" y="102" font-size="12" fill="#67746e" text-anchor="start" font-weight="400">Service access</text><text x="596" y="121" font-size="12" fill="#67746e" text-anchor="start" font-weight="400">Separate route to test</text><ellipse cx="359" cy="391" rx="118" ry="120" fill="#f0e4c6" fill-opacity=".65" stroke="#917342" stroke-width="1.4"/><path d="M325 531 Q300 461 344 418" fill="none" stroke="#917342" stroke-width="2.6" stroke-linecap="round" stroke-linejoin="round"  marker-end="url(#arr-917342)"/><ellipse cx="359" cy="389" rx="64" ry="51" fill="#f8efd9" stroke="#917342" stroke-width="2"/><text x="359" y="378" font-size="18" fill="#233b38" text-anchor="middle" font-weight="600">Shared</text><text x="359" y="401" font-size="18" fill="#233b38" text-anchor="middle" font-weight="600">lobby</text><text x="359" y="420" font-size="12" fill="#67746e" text-anchor="middle" font-weight="400">look up / move up</text><g data-bubble="Cafe / retail" data-program="public"><ellipse cx="258" cy="463" rx="54" ry="34" fill="#fffdf6" fill-opacity=".93" stroke="#233b38" stroke-opacity=".6" stroke-width="1.4" /><text x="258" y="458" font-size="17" fill="#233b38" text-anchor="middle" font-weight="550">Cafe /</text><text x="258" y="479" font-size="17" fill="#233b38" text-anchor="middle" font-weight="550">retail</text></g><g data-bubble="Exhibition / display" data-program="culture"><ellipse cx="309" cy="285" rx="55" ry="43" fill="#fffdf6" fill-opacity=".93" stroke="#233b38" stroke-opacity=".6" stroke-width="1.4" /><text x="309" y="280" font-size="17" fill="#233b38" text-anchor="middle" font-weight="550">Exhibition /</text><text x="309" y="301" font-size="17" fill="#233b38" text-anchor="middle" font-weight="550">display</text></g><g data-bubble="Workshop / demo" data-program="learn"><ellipse cx="416" cy="272" rx="64" ry="39" fill="#fffdf6" fill-opacity=".93" stroke="#233b38" stroke-opacity=".6" stroke-width="1.4" /><text x="416" y="267" font-size="17" fill="#233b38" text-anchor="middle" font-weight="550">Workshop /</text><text x="416" y="288" font-size="17" fill="#233b38" text-anchor="middle" font-weight="550">demo</text></g><g data-bubble="Support" data-program="support"><ellipse cx="477" cy="198" rx="39" ry="28" fill="#e3e1da" fill-opacity=".93" stroke="#233b38" stroke-opacity=".6" stroke-width="1.4" /><text x="477" y="203" font-size="17" fill="#233b38" text-anchor="middle" font-weight="550">Support</text></g><g data-bubble="Lift + stair" data-program="support"><ellipse cx="453" cy="391" rx="40" ry="49" fill="#e3e1da" fill-opacity=".93" stroke="#233b38" stroke-opacity=".6" stroke-width="1.4" /><text x="453" y="386" font-size="17" fill="#233b38" text-anchor="middle" font-weight="550">Lift +</text><text x="453" y="407" font-size="17" fill="#233b38" text-anchor="middle" font-weight="550">stair</text></g><path d="M391 381 L417 381 M341 343 L306 318 M371 340 L394 308 M312 423 L287 444" fill="none" stroke="#67746e" stroke-width="1.6" stroke-linecap="round" stroke-linejoin="round"  /><path d="M456 336 L452 321" fill="none" stroke="#917342" stroke-width="2" stroke-linecap="round" stroke-linejoin="round"  marker-end="url(#arr-917342)"/><text x="565" y="380" font-size="13" fill="#917342" text-anchor="start" font-weight="400">Shared space</text><text x="565" y="404" font-size="13" fill="#917342" text-anchor="start" font-weight="400">continues vertically</text><g data-bubble="Ramp ↓" data-program="support"><ellipse cx="428" cy="482" rx="49" ry="31" fill="#e3e1da" fill-opacity=".93" stroke="#233b38" stroke-opacity=".6" stroke-width="1.4" /><text x="428" y="477" font-size="17" fill="#233b38" text-anchor="middle" font-weight="550">Ramp ↓</text><text x="428" y="502" font-size="12" fill="#67746e" text-anchor="middle" font-weight="400">to B1</text></g><path d="M545 569 L400 552" fill="none" stroke="#347e8c" stroke-width="2.5" stroke-linecap="round" stroke-linejoin="round" stroke-dasharray="5 4" marker-end="url(#arr-347e8c)"/><text x="552" y="575" font-size="12" fill="#347e8c" text-anchor="start" font-weight="400">Walk-in door</text><ellipse cx="325" cy="551" rx="70" ry="33" fill="#f8efd9" stroke="#917342" stroke-width="2"/><text x="325" y="551" font-size="18" fill="#233b38" text-anchor="middle" font-weight="600">Welcome</text><path d="M324 590 L324 579" fill="none" stroke="#ac5362" stroke-width="4" stroke-linecap="round" stroke-linejoin="round"  marker-end="url(#arr-ac5362)"/><text x="225" y="609" font-size="12" fill="#ac5362" text-anchor="start" font-weight="650">MAIN DOOR</text><line x1="164" y1="543" x2="141" y2="543" stroke="#233b38" stroke-width="1" /><text x="126" y="550" font-size="14" fill="#233b38" text-anchor="middle" font-weight="600">A</text><line x1="371" y1="117" x2="371" y2="89" stroke="#233b38" stroke-width="1" /><text x="371" y="79" font-size="14" fill="#233b38" text-anchor="middle" font-weight="600">A</text><text x="0" y="194" font-size="16" fill="#397b73" text-anchor="start" font-weight="700">03 / FOCUSED</text><text x="0" y="217" font-size="13" fill="#67746e" text-anchor="start" font-weight="400">learning / work</text><text x="0" y="236" font-size="13" fill="#67746e" text-anchor="start" font-weight="400">extends above</text><line x1="115" y1="228" x2="383" y2="252" stroke="#397b73" stroke-width="2" /><text x="0" y="337" font-size="16" fill="#aa8326" text-anchor="start" font-weight="700">02 / SHARED</text><text x="0" y="360" font-size="13" fill="#67746e" text-anchor="start" font-weight="400">encounter / exchange</text><text x="0" y="379" font-size="13" fill="#67746e" text-anchor="start" font-weight="400">holds other spaces</text><line x1="119" y1="368" x2="240" y2="353" stroke="#aa8326" stroke-width="2" /><text x="0" y="463" font-size="16" fill="#b85e45" text-anchor="start" font-weight="700">01 / ARRIVAL</text><text x="0" y="486" font-size="13" fill="#67746e" text-anchor="start" font-weight="400">street to welcome</text><text x="0" y="505" font-size="13" fill="#67746e" text-anchor="start" font-weight="400">south + east meet</text><line x1="116" y1="497" x2="197" y2="524" stroke="#b85e45" stroke-width="2" /></g><g transform="translate(880 190)"><text x="0" y="10" font-size="15" fill="#233b38" text-anchor="start" font-weight="700">ONE BUILDING / CONCEPT SECTION</text><text x="0" y="35" font-size="12" fill="#67746e" text-anchor="start" font-weight="400">South at left · north at right · proposed organisation, not measured form</text><text x="80" y="65" font-size="16" fill="#233b38" text-anchor="start" font-weight="650">C / Shared indoor voids connect selected floors</text><rect x="80" y="95" width="630" height="445" fill="#fffdf7" stroke="none" rx="0"/><rect data-layer="focused" x="84" y="99" width="526" height="82" fill="#397b73" fill-opacity=".24"/><text x="59" y="153" font-size="12" fill="#67746e" text-anchor="end" font-weight="650">L3</text><rect data-layer="focused" x="84" y="189" width="526" height="82" fill="#397b73" fill-opacity=".24"/><text x="59" y="243" font-size="12" fill="#67746e" text-anchor="end" font-weight="650">L2</text><rect data-layer="shared" x="84" y="279" width="336" height="82" fill="#aa8326" fill-opacity=".24"/><rect data-layer="focused" x="420" y="279" width="190" height="82" fill="#397b73" fill-opacity=".24"/><text x="59" y="333" font-size="12" fill="#67746e" text-anchor="end" font-weight="650">L1</text><rect data-layer="arrival" x="84" y="369" width="208" height="82" fill="#b85e45" fill-opacity=".24"/><rect data-layer="shared" x="292" y="369" width="318" height="82" fill="#aa8326" fill-opacity=".24"/><text x="59" y="423" font-size="12" fill="#67746e" text-anchor="end" font-weight="650">GROUND</text><rect data-layer="shared" x="268" y="99" width="125" height="82" fill="#aa8326" fill-opacity=".24"/><rect data-layer="shared" x="350" y="189" width="135" height="82" fill="#aa8326" fill-opacity=".24"/><rect data-layer="shared" x="275" y="279" width="120" height="82" fill="#aa8326" fill-opacity=".24"/><rect data-layer="shared" x="282" y="369" width="133" height="82" fill="#aa8326" fill-opacity=".24"/><rect x="286" y="143" width="90" height="90" fill="#fcfbf7" stroke="none" rx="0"/><text x="331" y="181" font-size="10" fill="#67746e" text-anchor="middle" font-weight="600">INDOOR VOID</text><rect x="372" y="233" width="90" height="90" fill="#fcfbf7" stroke="none" rx="0"/><text x="417" y="271" font-size="10" fill="#67746e" text-anchor="middle" font-weight="600">INDOOR VOID</text><line x1="80" y1="185" x2="286" y2="185" stroke="#233b38" stroke-width="5" /><line x1="376" y1="185" x2="710" y2="185" stroke="#233b38" stroke-width="5" /><line x1="80" y1="275" x2="372" y2="275" stroke="#233b38" stroke-width="5" /><line x1="462" y1="275" x2="710" y2="275" stroke="#233b38" stroke-width="5" /><line x1="80" y1="365" x2="710" y2="365" stroke="#233b38" stroke-width="5" /><line x1="80" y1="455" x2="710" y2="455" stroke="#233b38" stroke-width="5" /><text x="169" y="126" font-size="15" fill="#233b38" text-anchor="middle" font-weight="500">Quiet work</text><text x="330" y="120" font-size="15" fill="#233b38" text-anchor="middle" font-weight="500">Shared place</text><text x="523" y="126" font-size="15" fill="#233b38" text-anchor="middle" font-weight="500">Growing</text><text x="173" y="225" font-size="15" fill="#233b38" text-anchor="middle" font-weight="500">Co-working</text><text x="420" y="222" font-size="15" fill="#233b38" text-anchor="middle" font-weight="500">Meet</text><text x="540" y="220" font-size="15" fill="#233b38" text-anchor="middle" font-weight="500">Work</text><text x="175" y="319" font-size="15" fill="#233b38" text-anchor="middle" font-weight="500">Exhibition</text><text x="335" y="319" font-size="15" fill="#233b38" text-anchor="middle" font-weight="500">Share</text><text x="534" y="319" font-size="15" fill="#233b38" text-anchor="middle" font-weight="500">Learning</text><text x="180" y="407" font-size="15" fill="#233b38" text-anchor="middle" font-weight="500">Welcome / cafe</text><text x="350" y="400" font-size="15" fill="#233b38" text-anchor="middle" font-weight="500">Shared</text><text x="350" y="419" font-size="15" fill="#233b38" text-anchor="middle" font-weight="500">lobby</text><text x="525" y="405" font-size="15" fill="#233b38" text-anchor="middle" font-weight="500">Display / demo</text><line x1="80" y1="95" x2="80" y2="411" stroke="#233b38" stroke-width="4" /><line x1="80" y1="443" x2="80" y2="540" stroke="#233b38" stroke-width="4" /><line x1="710" y1="95" x2="710" y2="540" stroke="#233b38" stroke-width="4" /><line x1="80" y1="95" x2="710" y2="95" stroke="#233b38" stroke-width="5" /><rect x="80" y="459" width="630" height="81" fill="#e6e4dc" stroke="none" rx="0"/><line x1="80" y1="540" x2="710" y2="540" stroke="#233b38" stroke-width="5" /><text x="59" y="505" font-size="13" fill="#67746e" text-anchor="end" font-weight="700">B1</text><text x="330" y="492" font-size="16" fill="#233b38" text-anchor="middle" font-weight="650">UNDERGROUND PARKING</text><path d="M139 525 L139 514 L149 504 L180 504 L192 514 L197 514 L197 525 Z" fill="none" stroke="#67746e" stroke-width="1.6" stroke-linecap="round" stroke-linejoin="round"  /><circle cx="151" cy="526" r="4" fill="#67746e"/><circle cx="185" cy="526" r="4" fill="#67746e"/><path d="M224 525 L224 514 L234 504 L265 504 L277 514 L282 514 L282 525 Z" fill="none" stroke="#67746e" stroke-width="1.6" stroke-linecap="round" stroke-linejoin="round"  /><circle cx="236" cy="526" r="4" fill="#67746e"/><circle cx="270" cy="526" r="4" fill="#67746e"/><path d="M309 525 L309 514 L319 504 L350 504 L362 514 L367 514 L367 525 Z" fill="none" stroke="#67746e" stroke-width="1.6" stroke-linecap="round" stroke-linejoin="round"  /><circle cx="321" cy="526" r="4" fill="#67746e"/><circle cx="355" cy="526" r="4" fill="#67746e"/><path d="M394 525 L394 514 L404 504 L435 504 L447 514 L452 514 L452 525 Z" fill="none" stroke="#67746e" stroke-width="1.6" stroke-linecap="round" stroke-linejoin="round"  /><circle cx="406" cy="526" r="4" fill="#67746e"/><circle cx="440" cy="526" r="4" fill="#67746e"/><rect x="614" y="99" width="93" height="437" fill="#f0eee7" stroke="none" rx="0"/><line x1="614" y1="99" x2="614" y2="540" stroke="#233b38" stroke-width="2" /><line x1="664" y1="99" x2="664" y2="540" stroke="#233b38" stroke-width="2" /><path d="M620 179 h5 v-10 h5 v-10 h5 v-10 h5 v-10 h5 v-10 h5 v-10 h5 v-10" fill="none" stroke="#233b38" stroke-width="1.6" stroke-linecap="round" stroke-linejoin="round"  /><line x1="610" y1="185" x2="664" y2="185" stroke="#233b38" stroke-width="3" /><path d="M620 269 h5 v-10 h5 v-10 h5 v-10 h5 v-10 h5 v-10 h5 v-10 h5 v-10" fill="none" stroke="#233b38" stroke-width="1.6" stroke-linecap="round" stroke-linejoin="round"  /><line x1="610" y1="275" x2="664" y2="275" stroke="#233b38" stroke-width="3" /><path d="M620 359 h5 v-10 h5 v-10 h5 v-10 h5 v-10 h5 v-10 h5 v-10 h5 v-10" fill="none" stroke="#233b38" stroke-width="1.6" stroke-linecap="round" stroke-linejoin="round"  /><line x1="610" y1="365" x2="664" y2="365" stroke="#233b38" stroke-width="3" /><path d="M620 449 h5 v-10 h5 v-10 h5 v-10 h5 v-10 h5 v-10 h5 v-10 h5 v-10" fill="none" stroke="#233b38" stroke-width="1.6" stroke-linecap="round" stroke-linejoin="round"  /><line x1="610" y1="455" x2="664" y2="455" stroke="#233b38" stroke-width="3" /><path d="M620 534 h5 v-10 h5 v-10 h5 v-10 h5 v-10 h5 v-10 h5 v-10 h5 v-10" fill="none" stroke="#233b38" stroke-width="1.6" stroke-linecap="round" stroke-linejoin="round"  /><line x1="610" y1="540" x2="664" y2="540" stroke="#233b38" stroke-width="3" /><rect x="673" y="395" width="25" height="48" fill="#fffdf7" stroke="#67746e" rx="0"/><line x1="685" y1="400" x2="685" y2="440" stroke="#67746e" stroke-width="1" /><line x1="686" y1="112" x2="686" y2="528" stroke="#67746e" stroke-width="1" stroke-dasharray="4 5"/><text x="638" y="86" font-size="10" fill="#67746e" text-anchor="middle" font-weight="650">STAIR</text><text x="687" y="86" font-size="10" fill="#67746e" text-anchor="middle" font-weight="650">LIFT</text><path d="M12 430 L129 430" fill="none" stroke="#ac5362" stroke-width="3" stroke-linecap="round" stroke-linejoin="round"  marker-end="url(#arr-ac5362)"/><text x="0" y="471" font-size="11" fill="#ac5362" text-anchor="start" font-weight="600">South door</text><text x="0" y="486" font-size="11" fill="#ac5362" text-anchor="start" font-weight="600">after C1 stairs</text><line x1="0" y1="455" x2="80" y2="455" stroke="#233b38" stroke-width="2" /><line x1="710" y1="455" x2="752" y2="455" stroke="#233b38" stroke-width="2" /><path d="M755 479 L722 510 L573 510" fill="none" stroke="#347e8c" stroke-width="3" stroke-linecap="round" stroke-linejoin="round"  marker-end="url(#arr-347e8c)"/><text x="600" y="560" font-size="12" fill="#347e8c" text-anchor="middle" font-weight="600">East ramp → B1 (out-of-plane connection)</text><text x="80" y="586" font-size="11" fill="#67746e" text-anchor="start" font-weight="400">Diagram only: building shape, heights, slabs, core and ramp remain to be designed.</text></g><line x1="850" y1="191" x2="850" y2="937" stroke="#d5d8ce" stroke-width="1" /><text x="886" y="797" font-size="22" fill="#233b38" text-anchor="start" font-weight="600">Nesting through section</text><text x="886" y="831" font-size="17" fill="#233b38" text-anchor="start" font-weight="400">A stepped sequence of voids links the floors visually.</text><text x="886" y="856" font-size="17" fill="#233b38" text-anchor="start" font-weight="400">Public galleries sit between learning and work layers.</text><text x="886" y="881" font-size="17" fill="#233b38" text-anchor="start" font-weight="400">A terrace connects to growing at the upper level.</text><text x="65" y="968" font-size="18" fill="#233b38" text-anchor="start" font-weight="400">The southern and eastern doors meet at a compact lobby.</text><text x="65" y="993" font-size="18" fill="#233b38" text-anchor="start" font-weight="400">Cafe, display and a demonstration space animate the ground.</text><text x="65" y="1018" font-size="18" fill="#233b38" text-anchor="start" font-weight="400">A visible lift and stair lead toward shared upper places.</text><line x1="48" y1="1052" x2="1632" y2="1052" stroke="#d5d8ce" stroke-width="1" /><rect x="50" y="1067" width="26" height="22" fill="#b85e45" stroke="none" rx="3"/><text x="87" y="1083" font-size="16" fill="#b85e45" text-anchor="start" font-weight="700">01 ARRIVAL / receive</text><rect x="413" y="1067" width="26" height="22" fill="#aa8326" stroke="none" rx="3"/><text x="450" y="1083" font-size="16" fill="#aa8326" text-anchor="start" font-weight="700">02 SHARED / connect</text><rect x="776" y="1067" width="26" height="22" fill="#397b73" stroke="none" rx="3"/><text x="813" y="1083" font-size="16" fill="#397b73" text-anchor="start" font-weight="700">03 FOCUSED / concentrate</text><text x="1150" y="1083" font-size="15" fill="#67746e" text-anchor="start" font-weight="400">White bubbles = activities within layers</text><text x="50" y="1123" font-size="12" fill="#67746e" text-anchor="start" font-weight="650">PROMISE</text><text x="145" y="1123" font-size="16" fill="#233b38" text-anchor="start" font-weight="400">Gives the strongest vertical exchange within a compact body.</text><text x="50" y="1152" font-size="12" fill="#67746e" text-anchor="start" font-weight="650">WATCH</text><text x="145" y="1152" font-size="16" fill="#233b38" text-anchor="start" font-weight="400">Public life could retreat upstairs; voids consume floor area.</text><text x="886" y="945" font-size="12" fill="#67746e" text-anchor="start" font-weight="650">ALL OPTIONS SHARE</text><text x="886" y="972" font-size="15" fill="#233b38" text-anchor="start" font-weight="400">South pedestrian door + east ramp to underground parking.</text><text x="886" y="995" font-size="15" fill="#233b38" text-anchor="start" font-weight="400">B1 → lift / stairs → shared welcome; east walk-in door retained.</text><text x="886" y="1018" font-size="15" fill="#233b38" text-anchor="start" font-weight="400">Basement feasibility and how it is counted remain design checks.</text><text x="50" y="1200" font-size="12" fill="#67746e" text-anchor="start" font-weight="400">SCHEMATIC / bubble size does not represent area. Outline is a mapped reference; no footprint or setback compliance is asserted.</text><text x="1632" y="1200" font-size="12" fill="#233b38" text-anchor="end" font-weight="650">OPTION C</text></g></svg>